name C:\Users\u0101727\Documents\MyRepositories\upper-imu-dc\Results\main_tracking\Case_60\kinematics.mot
datacolumns 10
datarows 33
range 3.00000000 3.32000000
endheader 
time	clav_prot	clav_elev	scapula_abduction	scapula_elevation	scapula_upward_rot	scapula_winging	plane_elv	shoulder_elv	axial_rot	
          3.00000000	        -22.35801977	          5.31608177	        -17.79929743	          4.55013992	          8.89347568	          5.22522256	          0.89974457	         14.34734571	         21.24218511	
          3.01000000	        -22.30372001	          5.29023845	        -17.71859460	          4.54968332	          8.83383608	          5.24429431	          0.95872952	         14.38442195	         21.02458742	
          3.02000000	        -22.31981849	          5.27038760	        -17.76880149	          4.55014128	          8.77802282	          5.26211957	          1.01385002	         14.42983989	         20.80513902	
          3.03000000	        -22.32843304	          5.25152498	        -17.80351665	          4.55041027	          8.72692368	          5.27842414	          1.06278894	         14.48318016	         20.58071269	
          3.04000000	        -22.32273794	          5.23359091	        -17.81001267	          4.55055066	          8.68157946	          5.29288660	          1.10460669	         14.54473061	         20.35004639	
          3.05000000	        -22.31601862	          5.21817242	        -17.81227634	          4.55075456	          8.64270589	          5.30528505	          1.13894434	         14.61498205	         20.11251093	
          3.06000000	        -22.29872519	          5.20502049	        -17.79288228	          4.55123674	          8.61090216	          5.31543241	          1.16557081	         14.69445608	         19.86809999	
          3.07000000	        -22.27396300	          5.19492725	        -17.75751531	          4.55230363	          8.58654807	          5.32320937	          1.18469473	         14.78376312	         19.61674195	
          3.08000000	        -22.24380275	          5.18857244	        -17.70994577	          4.55422855	          8.57005677	          5.32848534	          1.19649838	         14.88339224	         19.35862838	
          3.09000000	        -22.20931949	          5.18648719	        -17.65211376	          4.55723800	          8.56181930	          5.33113608	          1.20121065	         14.99377072	         19.09393568	
          3.10000000	        -22.17121157	          5.18910696	        -17.58526134	          4.56151805	          8.56219274	          5.33104792	          1.19906233	         15.11526741	         18.82280562	
          3.11000000	        -22.13034713	          5.19679843	        -17.51089428	          4.56718840	          8.57154366	          5.32810511	          1.19021253	         15.24815424	         18.54525940	
          3.12000000	        -22.08756377	          5.20982910	        -17.43042090	          4.57429604	          8.59023196	          5.32219502	          1.17474573	         15.39262000	         18.26119861	
          3.13000000	        -22.04368733	          5.22836375	        -17.34518226	          4.58281043	          8.61861433	          5.31320708	          1.15268014	         15.54876297	         17.97041117	
          3.14000000	        -21.99950772	          5.25246142	        -17.25641087	          4.59262442	          8.65703853	          5.30103435	          1.12400290	         15.71659165	         17.67260519	
          3.15000000	        -21.95575243	          5.28207625	        -17.16518989	          4.60356012	          8.70583187	          5.28557643	          1.08872043	         15.89603000	         17.36746919	
          3.16000000	        -21.91307551	          5.31706286	        -17.07244061	          4.61537669	          8.76529162	          5.26674166	          1.04691700	         16.08691959	         17.05473295	
          3.17000000	        -21.87204863	          5.35718528	        -16.97891362	          4.62778005	          8.83567826	          5.24444821	          0.99881383	         16.28901781	         16.73422685	
          3.18000000	        -21.83315452	          5.40212889	        -16.88518364	          4.64043372	          8.91721173	          5.21862426	          0.94482096	         16.50199639	         16.40593457	
          3.19000000	        -21.79679519	          5.45151433	        -16.79166866	          4.65296865	          9.01007336	          5.18920662	          0.88557123	         16.72544171	         16.07002688	
          3.20000000	        -21.76330734	          5.50491248	        -16.69865972	          4.66499208	          9.11441252	          5.15613809	          0.82193508	         16.95886006	         15.72687492	
          3.21000000	        -21.73296651	          5.56186063	        -16.60633167	          4.67609810	          9.23035260	          5.11936527	          0.75502388	         17.20168937	         15.37705643	
          3.22000000	        -21.70600961	          5.62188202	        -16.51478189	          4.68587639	          9.35800867	          5.07883326	          0.68617132	         17.45329826	         15.02133032	
          3.23000000	        -21.68260981	          5.68450384	        -16.42399563	          4.69392922	          9.49748289	          5.03448719	          0.61690915	         17.71299586	         14.66062732	
          3.24000000	        -21.66284305	          5.74927330	        -16.33380621	          4.69989317	          9.64884106	          4.98628026	          0.54893560	         17.98005158	         14.29604461	
          3.25000000	        -21.64674671	          5.81578039	        -16.24399624	          4.70344579	          9.81213793	          4.93416751	          0.48402289	         18.25367128	         13.92874443	
          3.26000000	        -21.63420630	          5.88367126	        -16.15413386	          4.70434026	          9.98735908	          4.87812466	          0.42398135	         18.53304814	         13.55998408	
          3.27000000	        -21.62497095	          5.95266461	        -16.06360993	          4.70241764	         10.17441905	          4.81815065	          0.37060358	         18.81736623	         13.19106583	
          3.28000000	        -21.61868661	          6.02256617	        -15.97168831	          4.69760703	         10.37319114	          4.75425984	          0.32555889	         19.10577938	         12.82322537	
          3.29000000	        -21.61477288	          6.09326539	        -15.87732757	          4.68995232	         10.58343264	          4.68650625	          0.29041849	         19.39748372	         12.45772088	
          3.30000000	        -21.61256630	          6.16473842	        -15.77939573	          4.67958203	         10.80486363	          4.61496057	          0.26653998	         19.69166145	         12.09567601	
          3.31000000	        -21.61132118	          6.23702389	        -15.67667792	          4.66669824	         11.03713927	          4.53971929	          0.25503975	         19.98752165	         11.73808697	
          3.32000000	        -21.61019117	          6.31020684	        -15.56784746	          4.65157000	         11.27983207	          4.46091019	          0.25678551	         20.28432784	         11.38584970	
